# xmcd
#
# Track frame offsets:
#	150
#	13115
#	22633
#	32056
#	43882
#	54676
#	67706
#	79683
#	92556
#	103665
#	116273
#	126222
#	136468
#	147026
#	157509
#	168640
#	182382
#
# Disc length: 2563 seconds
#
# Revision: 1
# Processed by: cddbd v1.5.2PL0 Copyright (c) Steve Scherf et al.
# Submitted via: audiograbber 1.83.01
#
DISCID=cb0a0111
DTITLE=Charlie Rich - The Best Of  CD1
DYEAR=2015
DGENRE=Country
TTITLE0=The Most Beautiful Girl
TTITLE1=Lonely Weekends
TTITLE2=Whirlwind
TTITLE3=It's Too Late
TTITLE4=Gonna Be Waitin'
TTITLE5=Juanita
TTITLE6=Big Man
TTITLE7=Easy Money
TTITLE8=Caught In The Middle
TTITLE9=Stay
TTITLE10=Thats How Much I Love You
TTITLE11=Finally Found Out
TTITLE12=Who Will The Next Fool Be
TTITLE13=C.C. Rider
TTITLE14=On My Knees
TTITLE15=Sittin' And Thinkin'
TTITLE16=Mohair Sam
EXTD=
EXTT0=
EXTT1=
EXTT2=
EXTT3=
EXTT4=
EXTT5=
EXTT6=
EXTT7=
EXTT8=
EXTT9=
EXTT10=
EXTT11=
EXTT12=
EXTT13=
EXTT14=
EXTT15=
EXTT16=
PLAYORDER=
